<svg xmlns="http://www.w3.org/2000/svg" xmlns:xlink="http://www.w3.org/1999/xlink" version="1.1" x="0px" y="0px" viewBox="-255 347 100 125" enable-background="new -255 347 100 100" xml:space="preserve"><rect x="-250.1" y="351.9" fill="none" width="90.3" height="90.3"/><path fill="none" stroke="#000000" stroke-width="3" stroke-linecap="round" stroke-miterlimit="10" d="M-165.2,370h-18.1  c-2.7,0-4.5-7.2-7.2-7.2h-28.9c-2.7,0-4.6,7.2-7.2,7.2h-18.1c-2,0-3.6,1.6-3.6,3.6v48.8c0,2,1.6,3.6,3.6,3.6h79.5  c2,0,3.6-1.6,3.6-3.6v-48.8C-161.6,371.6-163.2,370-165.2,370z"/><g><path d="M-193.9,380.5c-8.9-6.3-21.3-4.2-27.5,4.7l0,0l0,0c0,0,0,0,0,0.1c0,0,0,0.1-0.1,0.1l0,0c-0.3,0.6-0.1,1.4,0.4,1.8   c0.6,0.4,1.4,0.3,1.8-0.2l0,0c0-0.1,0.1-0.1,0.1-0.2c5.4-7.6,16-9.4,23.7-4c5.2,3.7,7.7,9.8,7.1,15.8l-4.6-4.1   c-0.6-0.5-1.5-0.5-2,0.1s-0.5,1.5,0.1,2l7.4,6.5c0.3,0.2,0.6,0.4,1,0.3c0.4,0,0.7-0.2,1-0.5l6.5-7.4l0.1-0.1   c0.4-0.6,0.3-1.4-0.2-1.8c-0.6-0.5-1.5-0.5-2,0.1l-4.5,5.1C-184.9,391.9-187.8,384.8-193.9,380.5z"/><path d="M-190.6,407L-190.6,407c-0.1,0.1-0.1,0.1-0.2,0.2c-5.4,7.6-16,9.4-23.7,4c-5.2-3.7-7.7-9.8-7.1-15.8l4.6,4.1   c0.6,0.5,1.5,0.5,2-0.1s0.5-1.5-0.1-2l-7.4-6.5c-0.3-0.2-0.6-0.4-1-0.3c-0.4,0-0.7,0.2-1,0.5l-6.5,7.4l-0.1,0.1   c-0.4,0.6-0.3,1.4,0.2,1.8c0.6,0.5,1.5,0.5,2-0.1l4.5-5.1c-0.8,6.9,2.1,14,8.2,18.3c8.9,6.3,21.3,4.2,27.5-4.7l0,0l0,0   c0,0,0,0,0-0.1c0,0,0-0.1,0.1-0.1l0,0c0.3-0.6,0.1-1.4-0.4-1.8C-189.3,406.4-190.1,406.5-190.6,407z"/></g><text x="-255" y="462" fill="#000000" font-size="5px" font-weight="bold" font-family="'Helvetica Neue', Helvetica, Arial-Unicode, Arial, Sans-serif">Created by Ashwin Dinesh</text><text x="-255" y="467" fill="#000000" font-size="5px" font-weight="bold" font-family="'Helvetica Neue', Helvetica, Arial-Unicode, Arial, Sans-serif">from the Noun Project</text></svg>