<?xml version="1.0" encoding="UTF-8" standalone="no"?>
<!-- Created with Inkscape (http://www.inkscape.org/) -->

<svg
   width="42.168999mm"
   height="26.458mm"
   viewBox="0 0 42.168998 26.458"
   version="1.1"
   id="svg2750"
   inkscape:version="1.1 (c68e22c387, 2021-05-23)"
   sodipodi:docname="VideoCall.svg"
   xmlns:inkscape="http://www.inkscape.org/namespaces/inkscape"
   xmlns:sodipodi="http://sodipodi.sourceforge.net/DTD/sodipodi-0.dtd"
   xmlns="http://www.w3.org/2000/svg"
   xmlns:svg="http://www.w3.org/2000/svg">
  <sodipodi:namedview
     id="namedview2752"
     pagecolor="#ffffff"
     bordercolor="#666666"
     borderopacity="1.0"
     inkscape:pageshadow="2"
     inkscape:pageopacity="0.0"
     inkscape:pagecheckerboard="0"
     inkscape:document-units="mm"
     showgrid="false"
     width="26.458mm"
     inkscape:zoom="0.67081229"
     inkscape:cx="-35.032155"
     inkscape:cy="561.25984"
     inkscape:window-width="1920"
     inkscape:window-height="1137"
     inkscape:window-x="-8"
     inkscape:window-y="-8"
     inkscape:window-maximized="1"
     inkscape:current-layer="layer1" />
  <defs
     id="defs2747">
    <clipPath
       clipPathUnits="userSpaceOnUse"
       id="clipPath92">
      <path
         d="m 10175.8,9919.71 -288.47,-155.55 v 139.26 c 0,45.67 -37.02,82.69 -82.68,82.69 h -708.5 c -45.66,0 -82.68,-37.02 -82.68,-82.69 V 9318.8 c 0,-45.67 37.02,-82.69 82.68,-82.69 h 708.5 c 45.66,0 82.68,37.02 82.68,82.69 v 139.26 l 288.47,-155.55 c 14.9,-8.01 33,2.76 33,19.65 v 577.9 c 0,16.89 -18.1,27.66 -33,19.65 z"
         id="path90" />
    </clipPath>
    <linearGradient
       x1="0"
       y1="0"
       x2="1"
       y2="0"
       gradientUnits="userSpaceOnUse"
       gradientTransform="matrix(-758.179,-758.179,-758.179,758.179,9977.37,9991.55)"
       spreadMethod="pad"
       id="linearGradient100">
      <stop
         style="stop-opacity:1;stop-color:#c4c4c4"
         offset="0"
         id="stop94" />
      <stop
         style="stop-opacity:1;stop-color:#ffffff"
         offset="0.46049208"
         id="stop96" />
      <stop
         style="stop-opacity:1;stop-color:#ffffff"
         offset="1"
         id="stop98" />
    </linearGradient>
  </defs>
  <g
     inkscape:label="Layer 1"
     inkscape:groupmode="layer"
     id="layer1">
    <g
       id="g86"
       transform="matrix(0.03527812,0,0,-0.03527733,-317.97831,352.28333)"
       style="fill:#00ffff">
      <g
         id="g88"
         clip-path="url(#clipPath92)"
         style="fill:#00ffff">
        <path
           d="m 10175.8,9919.71 -288.47,-155.55 v 139.26 c 0,45.67 -37.02,82.69 -82.68,82.69 h -708.5 c -45.66,0 -82.68,-37.02 -82.68,-82.69 V 9318.8 c 0,-45.67 37.02,-82.69 82.68,-82.69 h 708.5 c 45.66,0 82.68,37.02 82.68,82.69 v 139.26 l 288.47,-155.55 c 14.9,-8.01 33,2.76 33,19.65 v 577.9 c 0,16.89 -18.1,27.66 -33,19.65"
           style="fill:#00ffff;fill-opacity:1;fill-rule:nonzero;stroke:none"
           id="path102" />
      </g>
    </g>
  </g>
</svg>
